<?xml version="1.0" encoding="utf-8"?>
<!-- Generator: Adobe Illustrator 27.9.0, SVG Export Plug-In . SVG Version: 6.00 Build 0)  -->
<svg version="1.1" id="Layer_1" xmlns="http://www.w3.org/2000/svg" xmlns:xlink="http://www.w3.org/1999/xlink" x="0px" y="0px"
	 viewBox="0 0 99.01 128" style="enable-background:new 0 0 99.01 128;" xml:space="preserve">
<style type="text/css">
	.st0{fill:#FFF9F3;}
</style>
<g>
	<g>
		<g transform="translate(157.579682, 194.193789)">
			<g>
				<path class="st0" d="M-131.14-138.26v-51.46c0-0.61-0.61-1.37-1.67-1.37h-19.95c-0.91,0-1.67,0.76-1.67,1.37v51.46
					L-131.14-138.26L-131.14-138.26z M-154.43-114.97v44.3c0,0.61,0.77,1.37,1.67,1.37h19.95c1.06,0,1.67-0.77,1.67-1.37v-21.47H-85
					v21.47c0,0.61,0.76,1.37,1.67,1.37h19.95c1.06,0,1.67-0.77,1.67-1.37v-119.05c0-0.61-0.6-1.37-1.67-1.37h-19.95
					c-0.91,0-1.67,0.76-1.67,1.37v74.91L-154.43-114.97z"/>
			</g>
		</g>
	</g>
</g>
</svg>
