<?xml version="1.0" encoding="utf-8"?>
<!-- Generator: Adobe Illustrator 27.9.0, SVG Export Plug-In . SVG Version: 6.00 Build 0)  -->
<svg version="1.1" id="Layer_1" xmlns="http://www.w3.org/2000/svg" xmlns:xlink="http://www.w3.org/1999/xlink" x="0px" y="0px"
	 viewBox="0 0 591 171.67" style="enable-background:new 0 0 591 171.67;" xml:space="preserve">
<style type="text/css">
	.st0{fill:#FFF9F3;}
</style>
<g>
	<path class="st0" d="M124.11,15.73h-22.95c-1.05,0-1.92,0.87-1.92,1.58v86.19l-79.88-0.18v50.98c0,0.7,0.88,1.58,1.92,1.58h22.95
		c1.23,0,1.92-0.88,1.92-1.58v-24.7h53.09v24.7c0,0.7,0.87,1.58,1.92,1.58h22.95c1.23,0,1.92-0.88,1.92-1.58V17.31
		C126.03,16.61,125.33,15.73,124.11,15.73z"/>
	<path class="st0" d="M46.16,17.31c0-0.7-0.7-1.58-1.92-1.58H21.29c-1.05,0-1.92,0.87-1.92,1.58v59.21h26.79V17.31z"/>
	<polygon class="st0" points="151.38,59.88 167.03,59.88 167.03,74 174.99,74 174.99,39.55 167.03,39.55 167.03,53.14 151.38,53.14 
		151.38,39.55 143.42,39.55 143.42,74 151.38,74 	"/>
	<path class="st0" d="M200.46,66.62h16l3.06,7.38h8.36l-15.42-34.45h-7.87L189.25,74h8.16L200.46,66.62z M208.48,47.38l5.46,13.19
		h-10.92L208.48,47.38z"/>
	<path class="st0" d="M250.05,64.41h7.32l6.65,9.58h8.57l-7.73-11.07c2.27-0.99,4.01-2.4,5.23-4.24c1.24-1.86,1.86-4.07,1.86-6.65
		c0-2.55-0.61-4.76-1.83-6.62c-1.21-1.88-2.93-3.32-5.2-4.33c-2.25-1.02-4.89-1.54-7.93-1.54h-14.9v34.45h7.96V64.41z M250.04,46.06
		h6.51c2.38,0,4.19,0.52,5.43,1.57c1.26,1.03,1.89,2.49,1.89,4.41c0,1.91-0.63,3.39-1.89,4.45c-1.24,1.05-3.05,1.57-5.43,1.57h-6.51
		V46.06z"/>
	<path class="st0" d="M314.4,71.87c2.88-1.43,5.12-3.44,6.71-6.04c1.58-2.59,2.38-5.61,2.38-9.06c0-3.44-0.8-6.45-2.38-9.03
		c-1.59-2.59-3.83-4.6-6.71-6.04c-2.86-1.43-6.17-2.15-9.9-2.15h-15.63v34.44h15.63C308.23,73.99,311.53,73.29,314.4,71.87z
		 M296.83,67.46V46.11h7.29c3.44,0,6.19,0.96,8.22,2.88c2.05,1.91,3.08,4.51,3.08,7.78c0,3.27-1.03,5.88-3.08,7.81
		c-2.03,1.92-4.78,2.88-8.22,2.88H296.83z"/>
	<polygon class="st0" points="356.94,74 364.75,50.68 372.33,74 380.9,74 392.17,39.55 384.53,39.55 376.51,63.95 368.64,39.55 
		361.26,39.55 353.16,63.77 345.38,39.55 337.1,39.55 348.43,74 	"/>
	<path class="st0" d="M414.65,66.62h16l3.06,7.38h8.36l-15.42-34.45h-7.87L403.44,74h8.16L414.65,66.62z M422.66,47.38l5.46,13.19
		H417.2L422.66,47.38z"/>
	<polygon class="st0" points="463.37,73.99 471.36,73.99 471.36,46.05 482.37,46.05 482.37,39.54 452.37,39.54 452.37,46.05 
		463.37,46.05 	"/>
	<polygon class="st0" points="523.96,67.6 505.2,67.6 505.2,59.61 521.2,59.61 521.2,53.42 505.2,53.42 505.2,45.93 523.32,45.93 
		523.32,39.54 497.3,39.54 497.3,73.99 523.96,73.99 	"/>
	<path class="st0" d="M548.89,64.41h7.32l6.65,9.58h8.57l-7.73-11.07c2.27-0.99,4.01-2.4,5.23-4.24c1.24-1.86,1.86-4.07,1.86-6.65
		c0-2.55-0.61-4.76-1.83-6.62c-1.21-1.88-2.93-3.32-5.2-4.33c-2.25-1.02-4.89-1.54-7.93-1.54h-14.9v34.45h7.96V64.41z M548.88,46.06
		h6.51c2.38,0,4.19,0.52,5.43,1.57c1.26,1.03,1.89,2.49,1.89,4.41c0,1.91-0.63,3.39-1.89,4.45c-1.24,1.05-3.05,1.57-5.43,1.57h-6.51
		V46.06z"/>
	<rect x="143.2" y="93.19" class="st0" width="428.44" height="1.5"/>
	<rect x="143.2" y="131.32" class="st0" width="428.44" height="1.5"/>
	<path class="st0" d="M247.62,108.64c0.79-0.44,1.67-0.67,2.64-0.67c1.51,0,2.78,0.56,3.83,1.68l1.71-1.6
		c-0.68-0.79-1.5-1.39-2.47-1.8c-0.95-0.41-2.01-0.61-3.19-0.61c-1.45,0-2.76,0.32-3.92,0.96c-1.16,0.64-2.08,1.52-2.76,2.64
		c-0.66,1.11-0.99,2.37-0.99,3.78c0,1.4,0.33,2.66,0.99,3.78c0.65,1.12,1.57,2,2.73,2.64c1.18,0.63,2.48,0.93,3.92,0.93
		c1.18,0,2.25-0.2,3.22-0.61c0.97-0.4,1.79-0.99,2.47-1.77l-1.71-1.66c-1.04,1.14-2.32,1.71-3.83,1.71c-0.97,0-1.85-0.21-2.64-0.64
		c-0.78-0.44-1.39-1.04-1.83-1.8c-0.43-0.75-0.64-1.61-0.64-2.58c0-0.96,0.21-1.82,0.64-2.58
		C246.23,109.67,246.84,109.07,247.62,108.64z"/>
	<path class="st0" d="M265.49,119.44c1.18,0.63,2.5,0.93,3.95,0.93c1.46,0,2.78-0.3,3.95-0.93c1.18-0.64,2.1-1.51,2.76-2.64
		c0.68-1.12,1.02-2.39,1.02-3.78c0-1.41-0.34-2.68-1.02-3.78c-0.66-1.12-1.58-2-2.76-2.64c-1.16-0.64-2.48-0.96-3.95-0.96
		c-1.45,0-2.77,0.32-3.95,0.96c-1.16,0.64-2.08,1.52-2.76,2.64c-0.66,1.13-0.99,2.39-0.99,3.78c0,1.38,0.33,2.64,0.99,3.78
		C263.41,117.92,264.33,118.8,265.49,119.44z M265.06,110.45c0.44-0.77,1.04-1.37,1.8-1.8c0.76-0.44,1.63-0.67,2.58-0.67
		c0.96,0,1.82,0.23,2.58,0.67c0.77,0.43,1.37,1.03,1.8,1.8c0.44,0.75,0.67,1.61,0.67,2.58c0,0.95-0.23,1.81-0.67,2.58
		c-0.43,0.75-1.03,1.36-1.8,1.8c-0.75,0.43-1.61,0.64-2.58,0.64c-0.96,0-1.82-0.21-2.58-0.64c-0.75-0.44-1.36-1.04-1.8-1.8
		c-0.43-0.76-0.64-1.63-0.64-2.58C264.42,112.07,264.63,111.21,265.06,110.45z"/>
	<path class="st0" d="M288.51,108.64c0.79-0.44,1.67-0.67,2.64-0.67c1.51,0,2.78,0.56,3.83,1.68l1.71-1.6
		c-0.68-0.79-1.5-1.39-2.47-1.8c-0.95-0.41-2.01-0.61-3.19-0.61c-1.45,0-2.76,0.32-3.92,0.96c-1.16,0.64-2.08,1.52-2.76,2.64
		c-0.66,1.11-0.99,2.37-0.99,3.78c0,1.4,0.33,2.66,0.99,3.78c0.65,1.12,1.57,2,2.73,2.64c1.18,0.63,2.48,0.93,3.92,0.93
		c1.17,0,2.25-0.2,3.22-0.61c0.97-0.4,1.79-0.99,2.47-1.77l-1.71-1.66c-1.04,1.14-2.32,1.71-3.83,1.71c-0.97,0-1.85-0.21-2.64-0.64
		c-0.78-0.44-1.39-1.04-1.83-1.8c-0.43-0.75-0.64-1.61-0.64-2.58c0-0.96,0.21-1.82,0.64-2.58
		C287.12,109.67,287.73,109.07,288.51,108.64z"/>
	<polygon class="st0" points="303.65,105.85 303.65,120.17 306.32,120.17 306.32,116.51 308.59,114.19 313.64,120.17 316.75,120.17 
		310.36,112.27 316.37,105.85 313.38,105.85 306.32,113.2 306.32,105.85 	"/>
	<polygon class="st0" points="328.55,120.17 328.55,108.12 333.28,108.12 333.28,105.85 321.14,105.85 321.14,108.12 325.87,108.12 
		325.88,108.12 325.88,120.17 	"/>
	<path class="st0" d="M348.97,116.86l1.42,3.31h2.8l-6.48-14.32h-2.61l-6.45,14.32h2.76l1.39-3.31H348.97z M345.4,108.53l2.7,6.24
		h-5.4L345.4,108.53z"/>
	<rect x="359.4" y="105.85" class="st0" width="2.67" height="14.32"/>
	<polygon class="st0" points="370.34,105.85 370.33,105.85 370.33,120.17 380.47,120.17 380.47,117.93 373.01,117.93 373.01,105.85 
			"/>
	<path class="st0" d="M405.36,113.72c0.52-0.77,0.78-1.7,0.78-2.79c0-1.04-0.26-1.94-0.76-2.7c-0.49-0.77-1.19-1.36-2.12-1.77
		c-0.91-0.41-1.99-0.61-3.22-0.61h-5.9v14.32h2.67v-4.18h3.22c0.25,0,0.43,0,0.55,0l2.93,4.18h2.86l-3.28-4.71
		C404.08,115.08,404.84,114.5,405.36,113.72z M402.52,113.07c-0.58,0.49-1.45,0.73-2.61,0.73h-3.11v-5.69h3.11
		c1.16,0,2.03,0.25,2.61,0.73c0.6,0.49,0.9,1.18,0.9,2.09C403.42,111.86,403.12,112.58,402.52,113.07z"/>
	<path class="st0" d="M416.21,119.44c1.18,0.63,2.5,0.93,3.95,0.93c1.46,0,2.79-0.3,3.95-0.93c1.18-0.64,2.1-1.51,2.76-2.64
		c0.68-1.12,1.02-2.39,1.02-3.78c0-1.41-0.34-2.68-1.02-3.78c-0.66-1.12-1.58-2-2.76-2.64c-1.16-0.64-2.48-0.96-3.95-0.96
		c-1.45,0-2.77,0.32-3.95,0.96c-1.16,0.64-2.08,1.52-2.76,2.64c-0.66,1.13-0.99,2.39-0.99,3.78c0,1.38,0.33,2.64,0.99,3.78
		C414.13,117.92,415.05,118.8,416.21,119.44z M415.78,110.45c0.44-0.77,1.04-1.37,1.8-1.8c0.76-0.44,1.63-0.67,2.58-0.67
		c0.96,0,1.82,0.23,2.58,0.67c0.77,0.43,1.37,1.03,1.8,1.8c0.44,0.75,0.67,1.61,0.67,2.58c0,0.95-0.23,1.81-0.67,2.58
		c-0.43,0.75-1.03,1.36-1.8,1.8c-0.75,0.43-1.61,0.64-2.58,0.64c-0.95,0-1.82-0.21-2.58-0.64c-0.75-0.44-1.36-1.04-1.8-1.8
		c-0.43-0.76-0.64-1.63-0.64-2.58C415.14,112.07,415.35,111.21,415.78,110.45z"/>
	<path class="st0" d="M437.83,119.44c1.18,0.63,2.5,0.93,3.95,0.93c1.46,0,2.79-0.3,3.95-0.93c1.18-0.64,2.1-1.51,2.76-2.64
		c0.68-1.12,1.02-2.39,1.02-3.78c0-1.41-0.34-2.68-1.02-3.78c-0.66-1.12-1.58-2-2.76-2.64c-1.16-0.64-2.48-0.96-3.95-0.96
		c-1.45,0-2.77,0.32-3.95,0.96c-1.16,0.64-2.08,1.52-2.76,2.64c-0.66,1.13-0.99,2.39-0.99,3.78c0,1.38,0.33,2.64,0.99,3.78
		C435.75,117.92,436.67,118.8,437.83,119.44z M437.4,110.45c0.44-0.77,1.04-1.37,1.8-1.8c0.76-0.44,1.63-0.67,2.58-0.67
		c0.96,0,1.82,0.23,2.58,0.67c0.77,0.43,1.37,1.03,1.8,1.8c0.44,0.75,0.67,1.61,0.67,2.58c0,0.95-0.23,1.81-0.67,2.58
		c-0.43,0.75-1.03,1.36-1.8,1.8c-0.75,0.43-1.61,0.64-2.58,0.64c-0.95,0-1.82-0.21-2.58-0.64c-0.75-0.44-1.36-1.04-1.8-1.8
		c-0.43-0.76-0.64-1.63-0.64-2.58C436.76,112.07,436.97,111.21,437.4,110.45z"/>
	<polygon class="st0" points="463.94,118.54 465.13,118.54 469.84,110.67 469.87,120.17 469.87,120.16 472.36,120.16 472.36,105.84 
		470.15,105.84 464.57,115.34 458.91,105.84 456.7,105.84 456.7,120.16 459.23,120.16 459.23,110.81 	"/>
</g>
</svg>
