<?xml version="1.0" encoding="utf-8"?>
<!-- Generator: Adobe Illustrator 27.9.0, SVG Export Plug-In . SVG Version: 6.00 Build 0)  -->
<svg version="1.1" id="Layer_1" xmlns="http://www.w3.org/2000/svg" xmlns:xlink="http://www.w3.org/1999/xlink" x="0px" y="0px"
	 viewBox="0 0 582.54 381.74" style="enable-background:new 0 0 582.54 381.74;" xml:space="preserve">
<g>
	<rect x="321.99" y="369.27" width="99.24" height="2"/>
	<rect x="163.92" y="288.36" width="99.24" height="2"/>
	<polygon points="44.1,244.2 23.78,244.2 23.78,226.55 13.45,226.55 13.45,271.26 23.78,271.26 23.78,252.94 44.11,252.94 
		44.11,271.27 54.44,271.27 54.44,226.55 44.1,226.55 	"/>
	<path d="M92.87,226.55l-19.9,44.72h10.59l3.96-9.58h20.77l3.96,9.58h10.86l-20.02-44.72H92.87z M90.83,253.85l7.09-17.12
		l7.09,17.12H90.83z"/>
	<path d="M181.15,271.27l-10.03-14.37c2.94-1.28,5.21-3.11,6.79-5.5c1.6-2.41,2.41-5.28,2.41-8.63c0-3.32-0.8-6.19-2.38-8.6
		c-1.57-2.43-3.81-4.31-6.75-5.62c-2.92-1.33-6.35-2-10.29-2h-19.34v44.72h10.33v-12.44h9.5l8.63,12.44H181.15z M167.38,248.52
		c-1.61,1.36-3.96,2.04-7.05,2.04h-8.45v-15.57h8.45c3.09,0,5.44,0.68,7.05,2.04c1.63,1.34,2.45,3.24,2.45,5.73
		S169.01,247.17,167.38,248.52z"/>
	<path d="M235.43,268.51c3.74-1.85,6.65-4.47,8.71-7.84c2.05-3.36,3.09-7.28,3.09-11.76c0-4.47-1.04-8.38-3.09-11.73
		c-2.06-3.36-4.97-5.97-8.71-7.84c-3.73-1.86-8.02-2.79-12.86-2.79h-20.28v44.71h20.28C227.42,271.26,231.71,270.35,235.43,268.51z
		 M212.62,262.78v-27.7h9.46c4.47,0,8.03,1.24,10.67,3.73c2.66,2.48,4,5.86,4,10.1c0,4.25-1.34,7.63-4,10.14
		c-2.64,2.49-6.2,3.73-10.67,3.73H212.62z"/>
	<polygon points="336.39,226.55 326.48,226.55 316.07,258.22 305.85,226.55 296.27,226.55 285.75,257.99 275.65,226.55 
		264.9,226.55 279.61,271.27 290.66,271.27 300.8,240.99 310.64,271.27 321.76,271.27 	"/>
	<path d="M361.59,271.27l3.96-9.58h20.77l3.96,9.58h10.86l-20.02-44.72H370.9L351,271.27H361.59z M375.95,236.73l7.09,17.12h-14.18
		L375.95,236.73z"/>
	<polygon points="414.53,235 428.82,235 428.82,235 428.82,271.27 439.19,271.27 439.19,235 453.48,235 453.48,226.55 
		414.53,226.55 	"/>
	<polygon points="483.1,252.6 503.87,252.6 503.87,244.57 483.1,244.57 483.1,234.84 506.63,234.84 506.63,226.55 472.85,226.55 
		472.85,271.26 507.46,271.26 507.46,262.97 483.1,262.97 	"/>
	<path d="M559.06,256.9c2.94-1.28,5.21-3.11,6.79-5.5c1.6-2.41,2.41-5.28,2.41-8.63c0-3.32-0.8-6.19-2.38-8.6
		c-1.57-2.43-3.81-4.31-6.75-5.62c-2.92-1.33-6.35-2-10.29-2H529.5v44.72h10.33v-12.44h9.5l8.63,12.44h11.13L559.06,256.9z
		 M555.32,248.52c-1.61,1.36-3.96,2.04-7.05,2.04h-8.45v-15.57h8.45c3.09,0,5.44,0.68,7.05,2.04c1.63,1.34,2.45,3.24,2.45,5.73
		S556.95,247.17,555.32,248.52z"/>
	<path d="M171.77,308.44c1.03-0.58,2.17-0.87,3.43-0.87c1.96,0,3.62,0.74,4.98,2.19l2.22-2.07c-0.88-1.03-1.95-1.81-3.2-2.34
		c-1.24-0.53-2.62-0.79-4.15-0.79c-1.89,0-3.58,0.41-5.09,1.24s-2.7,1.98-3.58,3.43c-0.86,1.43-1.28,3.07-1.28,4.9
		c0,1.81,0.42,3.45,1.28,4.9c0.84,1.46,2.03,2.6,3.54,3.43c1.53,0.81,3.22,1.21,5.09,1.21c1.52,0,2.92-0.26,4.19-0.77
		c1.25-0.53,2.31-1.29,3.2-2.3l-2.22-2.15c-1.36,1.48-3.02,2.22-4.98,2.22c-1.26,0-2.4-0.27-3.43-0.83
		c-1.01-0.58-1.81-1.36-2.38-2.34c-0.56-0.98-0.83-2.1-0.83-3.36s0.27-2.38,0.83-3.36C169.97,309.78,170.76,309,171.77,308.44z"/>
	<path d="M205.23,305.8c-1.51-0.83-3.23-1.24-5.13-1.24c-1.89,0-3.6,0.41-5.13,1.24c-1.51,0.83-2.7,1.98-3.58,3.43
		c-0.86,1.46-1.28,3.09-1.28,4.9c0,1.79,0.42,3.42,1.28,4.9c0.87,1.46,2.07,2.6,3.58,3.43c1.53,0.81,3.24,1.21,5.13,1.21
		c1.9,0,3.62-0.39,5.13-1.21c1.53-0.83,2.72-1.97,3.58-3.43c0.88-1.45,1.32-3.09,1.32-4.9c0-1.83-0.44-3.47-1.32-4.9
		C207.95,307.78,206.76,306.63,205.23,305.8z M205.8,317.49c-0.56,0.98-1.34,1.77-2.34,2.34c-0.98,0.56-2.11,0.83-3.36,0.83
		c-1.23,0-2.36-0.27-3.36-0.83c-0.98-0.58-1.77-1.36-2.34-2.34c-0.56-1-0.83-2.13-0.83-3.36c0-1.26,0.27-2.38,0.83-3.36
		c0.58-1,1.36-1.78,2.34-2.34c1-0.58,2.13-0.87,3.36-0.87c1.26,0,2.38,0.3,3.36,0.87c1,0.56,1.78,1.34,2.34,2.34
		c0.58,0.98,0.87,2.11,0.87,3.36C206.67,315.37,206.37,316.49,205.8,317.49z"/>
	<path d="M224.85,308.44c1.03-0.58,2.17-0.87,3.43-0.87c1.96,0,3.62,0.74,4.98,2.19l2.22-2.07c-0.88-1.03-1.95-1.81-3.2-2.34
		c-1.24-0.53-2.62-0.79-4.15-0.79c-1.89,0-3.58,0.41-5.09,1.24s-2.7,1.98-3.58,3.43c-0.86,1.43-1.28,3.07-1.28,4.9
		c0,1.81,0.42,3.45,1.28,4.9c0.84,1.46,2.03,2.6,3.54,3.43c1.53,0.81,3.22,1.21,5.09,1.21c1.53,0,2.92-0.26,4.19-0.77
		c1.25-0.53,2.31-1.29,3.2-2.3l-2.22-2.15c-1.36,1.48-3.02,2.22-4.98,2.22c-1.26,0-2.4-0.27-3.43-0.83
		c-1.01-0.58-1.81-1.36-2.38-2.34c-0.56-0.98-0.83-2.1-0.83-3.36s0.27-2.38,0.83-3.36C223.05,309.78,223.84,309,224.85,308.44z"/>
	<polygon points="261.02,304.82 257.14,304.82 247.98,314.36 247.98,304.82 244.51,304.82 244.51,323.41 247.98,323.41 
		247.98,318.66 250.92,315.64 257.48,323.41 261.51,323.41 253.22,313.15 	"/>
	<polygon points="267.2,307.76 273.34,307.76 273.34,323.41 276.81,323.41 276.81,307.76 282.96,307.76 282.96,304.82 267.2,304.82 
			"/>
	<path d="M297.02,304.82l-8.37,18.59h3.58l1.81-4.3h9.31l1.85,4.3h3.62l-8.41-18.59H297.02z M295.2,316.4l3.51-8.11l3.51,8.11H295.2
		z"/>
	<rect x="316.88" y="304.82" width="3.47" height="18.59"/>
	<polygon points="331.07,304.82 331.07,323.4 344.23,323.4 344.23,320.5 334.54,320.5 334.54,304.82 	"/>
	<path d="M327.22,354.18l-4.26-6.11c1.28-0.5,2.26-1.25,2.94-2.26c0.68-1,1.02-2.21,1.02-3.62c0-1.36-0.33-2.53-0.98-3.51
		c-0.63-1-1.54-1.77-2.75-2.3c-1.19-0.53-2.59-0.79-4.19-0.79h-7.65v18.59h3.47v-5.43h4.19c0.32,0,0.57,0,0.72,0l3.81,5.43H327.22z
		 M318.86,345.93h-4.03v-7.39h4.03c1.5,0,2.64,0.32,3.39,0.94c0.77,0.63,1.17,1.53,1.17,2.71c0,1.2-0.39,2.14-1.17,2.8
		C321.5,345.62,320.37,345.93,318.86,345.93z"/>
	<path d="M340.02,353.23c1.53,0.81,3.24,1.21,5.13,1.21c1.91,0,3.62-0.4,5.13-1.21c1.53-0.83,2.72-1.97,3.58-3.43
		c0.88-1.45,1.32-3.09,1.32-4.9c0-1.83-0.44-3.47-1.32-4.9c-0.86-1.45-2.05-2.6-3.58-3.43c-1.51-0.83-3.23-1.24-5.13-1.24
		c-1.89,0-3.6,0.41-5.13,1.24c-1.51,0.83-2.7,1.98-3.58,3.43c-0.86,1.46-1.28,3.09-1.28,4.9c0,1.79,0.42,3.42,1.28,4.9
		C337.31,351.26,338.51,352.4,340.02,353.23z M339.45,341.53c0.58-1,1.36-1.78,2.34-2.34c1-0.58,2.13-0.87,3.36-0.87
		c1.26,0,2.38,0.3,3.36,0.87c1,0.56,1.78,1.34,2.34,2.34c0.58,0.98,0.87,2.11,0.87,3.36c0,1.24-0.3,2.36-0.87,3.36
		c-0.56,0.98-1.34,1.77-2.34,2.34c-0.98,0.56-2.11,0.83-3.36,0.83c-1.23,0-2.35-0.27-3.36-0.83c-0.98-0.58-1.77-1.36-2.34-2.34
		c-0.56-1-0.83-2.13-0.83-3.36C338.62,343.63,338.89,342.51,339.45,341.53z"/>
	<path d="M378.36,336.57c-1.51-0.83-3.23-1.24-5.13-1.24c-1.89,0-3.6,0.41-5.13,1.24c-1.51,0.83-2.7,1.98-3.58,3.43
		c-0.86,1.46-1.28,3.09-1.28,4.9c0,1.79,0.42,3.42,1.28,4.9c0.87,1.46,2.07,2.6,3.58,3.43c1.53,0.81,3.24,1.21,5.13,1.21
		c1.9,0,3.62-0.4,5.13-1.21c1.53-0.83,2.72-1.97,3.58-3.43c0.88-1.45,1.32-3.09,1.32-4.9c0-1.83-0.44-3.47-1.32-4.9
		C381.08,338.55,379.89,337.4,378.36,336.57z M378.93,348.25c-0.56,0.98-1.34,1.77-2.34,2.34c-0.98,0.56-2.11,0.83-3.36,0.83
		c-1.24,0-2.36-0.27-3.36-0.83c-0.98-0.58-1.77-1.36-2.34-2.34c-0.56-1-0.83-2.13-0.83-3.36c0-1.26,0.27-2.38,0.83-3.36
		c0.58-1,1.36-1.78,2.34-2.34c1-0.58,2.13-0.87,3.36-0.87c1.26,0,2.38,0.3,3.36,0.87c1,0.56,1.78,1.34,2.34,2.34
		c0.58,0.98,0.87,2.11,0.87,3.36C379.8,346.13,379.5,347.25,378.93,348.25z"/>
	<polygon points="392.61,335.59 392.61,354.18 395.89,354.18 395.89,342.04 402,352.07 403.55,352.07 409.66,341.85 409.7,354.18 
		412.94,354.18 412.94,335.59 410.07,335.59 402.83,347.92 395.48,335.59 	"/>
	<path d="M254.06,12.51c0-0.91-0.91-2.05-2.49-2.05h-29.8c-1.36,0-2.49,1.14-2.49,2.05v76.87h34.79V12.51z"/>
	<path d="M221.76,192.4h29.8c1.58,0,2.49-1.15,2.49-2.05v-32.07h68.92v32.07c0,0.91,1.14,2.05,2.49,2.05h29.8
		c1.58,0,2.49-1.15,2.49-2.05V12.51c0-0.91-0.9-2.05-2.49-2.05h-29.8c-1.36,0-2.49,1.14-2.49,2.05v111.9l-103.71-0.24v66.18
		C219.27,191.26,220.42,192.4,221.76,192.4z"/>
</g>
</svg>
